<svg xmlns="http://www.w3.org/2000/svg" width="24" height="24" viewBox="0 -960 960 960"><path d="M444-200h70v-50q50-9 86-39t36-89q0-42-24-77t-96-61q-60-20-83-35t-23-41 18.5-41 53.5-15q32 0 50 15.5t26 38.5l64-26q-11-35-40.5-61T516-710v-50h-70v50q-50 11-78 44t-28 74q0 47 27.5 76t86.5 50q63 23 87.5 41t24.5 47q0 33-23.5 48.5T486-314t-58.5-20.5T390-396l-66 26q14 48 43.5 77.5T444-252zm36 120q-83 0-156-31.5T197-197t-85.5-127T80-480t31.5-156T197-763t127-85.5T480-880t156 31.5T763-763t85.5 127T880-480t-31.5 156T763-197t-127 85.5T480-80m0-80q134 0 227-93t93-227-93-227-227-93-227 93-93 227 93 227 227 93m0-320"/></svg>